_________________________  Visit us at _________________________
  
http://p2pdl.com  ____________________________  http://p2pdl.com


Silver Linings Playbook 2012 BRRip 720p x264 AAC - PRiSTiNE

Genre: Comedy | Drama | Romance
Plot: After a stint in a mental institution, 
former teacher Pat Solitano moves back in with 
his parents and tries to reconcile with his ex-wife. 
Things get more challenging when Pat meets Tiffany, 
a mysterious girl with problems of her own.
Director: David O. Russell
Stars: Bradley Cooper, Jennifer Lawrence, Robert De Niro
Rated: Rated R for language and some sexual content/nudity

Info: 
http://www.imdb.com/title/tt1045658/

General
Complete name                  : Silver Linings Playbook 2012 BRRip 720p x264 AAC - PRiSTiNE.mp4
Format                         : MPEG-4
Format profile                 : Base Media
File size                      : 701 MiB
Duration                       : 2h 2mn
Overall bit rate mode          : Variable
Overall bit rate               : 803 Kbps

Source                         : 720p.BluRay.x264-iNFAMOUS (Thanks)

Video
ID                             : 1
Format                         : AVC
Format/Info                    : Advanced Video Codec
Format profile                 : High 10@L4.1
Bit rate                       : 716 Kbps
Width                          : 1 280 pixels
Height                         : 536 pixels
Display aspect ratio           : 2.40:1
Frame rate mode                : Constant
Frame rate                     : 23.976 fps
Bit depth                      : 10 bits
Stream size                    : 625 MiB (89%)
Writing library                : x264 core 130 r2273 b3065e6

Audio
Format                         : AAC
Bit rate mode                  : Variable
Bit rate                       : 84.0 Kbps
Channel(s)                     : 2 channels
Channel positions              : Front: L R
Sampling rate                  : 48.0 KHz / 24.0 KHz
Stream size                    : 73.3 MiB (10%)
Language                       : English

Subtitle                       : Yes (English)

Screens: 
http://www.ultraimg.com/images/DVhLY.jpg 
http://www.ultraimg.com/images/vTDF0.jpg 
http://www.ultraimg.com/images/X3T6.jpg 
http://www.ultraimg.com/images/oA0kQ.jpg 
http://www.ultraimg.com/images/MhT1z.jpg
----------------------------------------------------------------------------------------------------
Encoded using revolutionary 10bit encoding, which enables us to provide you more crispier 
and sharper images at small sizes, just make sure you follow our instructions without a fault.
Recommend to you to use latest version of VLC player. Install K-Lite Codec Pack or shark007 codecs
in case of any kind of problem in playback (For non-VLC Media Player users). Alternatively, install
Core AVC codecs, the fastest decoder that there is coupled with Community Center Codec Pack and play
on Windows Media Player Classic. Check sample to be sure.
Enjoy!

Encoder Notes:Looking For Early Access To Anything You Can Provide DVDScr, R5, DVDR, BluRay, Direct
Audio, Music Releases and Seedboxes. We require dedicated servers, so as to do more 
and fast releases of movies.
If You Got anything to offer please contact us at "prg@hush.com".

Fan Page:   
http://www.fb.me/p2pdl